<?xml version="1.0" encoding="utf-8"?>
<!-- Generator: Adobe Illustrator 21.1.0, SVG Export Plug-In . SVG Version: 6.00 Build 0)  -->
<svg version="1.1" id="Capa_1" xmlns="http://www.w3.org/2000/svg" xmlns:xlink="http://www.w3.org/1999/xlink" x="0px" y="0px"
	 viewBox="0 0 240 73" style="enable-background:new 0 0 240 73;" xml:space="preserve">
<style type="text/css">
	.st0{fill:#006238;}
	.st1{fill:#006339;}
	.st2{fill:#1F140F;}
</style>
<title>LogoZB</title>
<g>
	<g>
		<path class="st0" d="M38.4,9.9L15,47.3h13.4c1.3,0,2.3-0.2,3.1-0.5c0.8-0.4,1.5-0.8,1.9-1.4c0.5-0.6,0.8-1.2,1-2
			c0.2-0.7,0.4-1.5,0.4-2.3l0.3-2.8h4.5l-0.3,12.8H3.7V48L27,10.6H14.8c-1,0-1.8,0.1-2.4,0.4c-0.6,0.3-1.1,0.6-1.5,1.1
			c-0.4,0.5-0.6,1.1-0.8,1.8c-0.2,0.7-0.3,1.5-0.4,2.3l-0.3,3.4H4.9L5.2,6.8h33.2V9.9z"/>
		<path class="st0" d="M60.5,20.8c-0.8,0-1.5,0.2-2,0.5c-0.5,0.3-1,0.8-1.3,1.4c-0.3,0.6-0.6,1.3-0.7,2.1c-0.1,0.8-0.2,1.7-0.2,2.7
			c-2.8,0-4.9-0.3-6.3-0.9c-1.4-0.6-2.1-1.7-2.1-3.2c0-1.1,0.3-2.1,1-2.9c0.7-0.8,1.6-1.5,2.8-2c1.2-0.5,2.5-0.9,4.1-1.1
			c1.5-0.2,3.2-0.3,5-0.3c2.2,0,4.1,0.2,5.7,0.6c1.6,0.4,3,1,4.1,1.8c1.1,0.8,1.9,1.9,2.4,3.3c0.5,1.3,0.8,3,0.8,4.9v15.8
			c0,0.8,0.1,1.6,0.2,2.1c0.1,0.6,0.3,1,0.6,1.4c0.3,0.3,0.7,0.6,1.2,0.7c0.5,0.1,1.1,0.2,1.8,0.2h0.2v3.3H66.2l-1.3-4.3h-0.5
			c-0.7,0.8-1.3,1.6-1.9,2.2c-0.6,0.6-1.3,1.1-1.9,1.5c-0.7,0.4-1.5,0.7-2.3,0.9c-0.9,0.2-1.9,0.3-3,0.3c-1.4,0-2.7-0.2-3.8-0.6
			c-1.2-0.4-2.2-1-3.1-1.9c-0.9-0.8-1.6-1.9-2.1-3.2c-0.5-1.3-0.8-2.8-0.8-4.5c0-3.4,1.2-5.9,3.5-7.5c2.3-1.6,5.8-2.5,10.5-2.6
			l5.1-0.2v-3.4c0-1,0-2-0.1-2.9c-0.1-0.9-0.3-1.6-0.5-2.2c-0.3-0.6-0.7-1.1-1.2-1.5C62,21,61.3,20.8,60.5,20.8z M54.9,41.9
			c0,1.8,0.3,3.1,0.8,4c0.6,0.9,1.5,1.3,2.7,1.3c0.9,0,1.7-0.2,2.4-0.6c0.7-0.4,1.3-0.9,1.9-1.6c0.5-0.7,0.9-1.5,1.2-2.5
			c0.3-1,0.4-2.1,0.4-3.3v-4.7l-2.8,0.2c-1.2,0.1-2.3,0.3-3.1,0.6c-0.8,0.3-1.5,0.8-2,1.4c-0.5,0.6-0.9,1.3-1.1,2.2
			C55.1,39.8,54.9,40.7,54.9,41.9z"/>
		<path class="st0" d="M117.1,34.4c0,3-0.3,5.6-0.8,7.8c-0.6,2.2-1.4,4-2.4,5.4c-1.1,1.4-2.4,2.5-4,3.2c-1.6,0.7-3.4,1-5.5,1
			c-1.2,0-2.3-0.1-3.2-0.4c-1-0.3-1.8-0.6-2.6-1.1c-0.8-0.5-1.5-1.1-2.1-1.7c-0.6-0.7-1.1-1.4-1.6-2.2h-0.6l-1.7,4.9H80.8v-3.3h0.4
			c0.6,0,1.2,0,1.7-0.2c0.6-0.1,1.1-0.3,1.5-0.6c0.4-0.3,0.8-0.7,1.1-1.3c0.3-0.6,0.4-1.3,0.4-2.3V11.4c0-0.9-0.1-1.6-0.4-2.1
			c-0.3-0.5-0.6-1-1.1-1.3c-0.4-0.3-1-0.5-1.6-0.6c-0.6-0.1-1.2-0.2-1.9-0.2h-0.2V3.9h14.6v10.6c0,0.6,0,1.4-0.1,2.3
			c-0.1,0.9-0.1,1.7-0.2,2.5c-0.1,0.9-0.2,1.8-0.2,2.8h0.4c0.9-1.5,2.1-2.8,3.6-3.6c1.5-0.9,3.4-1.3,5.7-1.3c2,0,3.8,0.3,5.4,1
			c1.5,0.7,2.9,1.7,3.9,3.1c1.1,1.4,1.9,3.2,2.4,5.4C116.9,28.8,117.1,31.4,117.1,34.4z M101.7,21.7c-1.2,0-2.3,0.3-3.1,0.8
			s-1.5,1.3-1.9,2.4c-0.5,1.1-0.8,2.4-1,4c-0.2,1.6-0.3,3.5-0.3,5.6c0,2,0.1,3.9,0.3,5.4c0.2,1.6,0.5,2.9,1,4c0.5,1.1,1.1,1.9,2,2.5
			c0.8,0.6,1.9,0.8,3.1,0.8c2,0,3.5-1.1,4.4-3.3c0.9-2.2,1.4-5.4,1.4-9.5c0-4.2-0.5-7.4-1.4-9.5C105.3,22.7,103.8,21.7,101.7,21.7z"
			/>
		<path class="st0" d="M138,20.8c-0.8,0-1.5,0.2-2,0.5c-0.5,0.3-1,0.8-1.3,1.4c-0.3,0.6-0.6,1.3-0.7,2.1c-0.1,0.8-0.2,1.7-0.2,2.7
			c-2.8,0-4.9-0.3-6.3-0.9c-1.4-0.6-2.1-1.7-2.1-3.2c0-1.1,0.3-2.1,1-2.9c0.7-0.8,1.6-1.5,2.8-2c1.2-0.5,2.5-0.9,4.1-1.1
			c1.5-0.2,3.2-0.3,5-0.3c2.2,0,4.1,0.2,5.7,0.6c1.6,0.4,3,1,4.1,1.8c1.1,0.8,1.9,1.9,2.4,3.3c0.5,1.3,0.8,3,0.8,4.9v15.8
			c0,0.8,0.1,1.6,0.2,2.1c0.1,0.6,0.3,1,0.6,1.4c0.3,0.3,0.7,0.6,1.2,0.7c0.5,0.1,1.1,0.2,1.8,0.2h0.2v3.3h-11.6l-1.3-4.3h-0.5
			c-0.7,0.8-1.3,1.6-1.9,2.2c-0.6,0.6-1.3,1.1-1.9,1.5c-0.7,0.4-1.5,0.7-2.3,0.9c-0.9,0.2-1.9,0.3-3,0.3c-1.4,0-2.7-0.2-3.8-0.6
			c-1.2-0.4-2.2-1-3.1-1.9c-0.9-0.8-1.6-1.9-2.1-3.2c-0.5-1.3-0.8-2.8-0.8-4.5c0-3.4,1.2-5.9,3.5-7.5c2.3-1.6,5.8-2.5,10.5-2.6
			l5.1-0.2v-3.4c0-1,0-2-0.1-2.9c-0.1-0.9-0.3-1.6-0.5-2.2c-0.3-0.6-0.7-1.1-1.2-1.5C139.5,21,138.9,20.8,138,20.8z M132.5,41.9
			c0,1.8,0.3,3.1,0.8,4c0.6,0.9,1.5,1.3,2.7,1.3c0.9,0,1.7-0.2,2.4-0.6c0.7-0.4,1.3-0.9,1.9-1.6c0.5-0.7,0.9-1.5,1.2-2.5
			c0.3-1,0.4-2.1,0.4-3.3v-4.7l-2.8,0.2c-1.2,0.1-2.3,0.3-3.1,0.6c-0.8,0.3-1.5,0.8-2,1.4c-0.5,0.6-0.9,1.3-1.1,2.2
			C132.6,39.8,132.5,40.7,132.5,41.9z"/>
		<path class="st0" d="M159.1,47.8c0.5,0,1,0,1.5-0.1s1-0.3,1.4-0.6c0.4-0.3,0.8-0.7,1.1-1.2c0.3-0.5,0.4-1.2,0.4-2.1V11
			c0-0.8-0.1-1.5-0.4-2c-0.3-0.5-0.7-0.9-1.1-1.2c-0.4-0.3-0.9-0.4-1.4-0.5c-0.5-0.1-1-0.1-1.4-0.1h-0.7V3.9h14.6v39.9
			c0,0.9,0.1,1.6,0.4,2.1c0.3,0.5,0.7,0.9,1.1,1.2c0.4,0.3,0.9,0.5,1.4,0.6c0.5,0.1,1,0.1,1.5,0.1h0.7v3.3h-19.8v-3.3H159.1z"/>
		<path class="st0" d="M180.9,47.8c0.5,0,1,0,1.5-0.1s1-0.3,1.4-0.6c0.4-0.3,0.8-0.7,1.1-1.2c0.3-0.5,0.4-1.2,0.4-2.1V24.9
			c0-0.8-0.1-1.5-0.4-2c-0.3-0.5-0.7-0.9-1.1-1.2c-0.4-0.3-0.9-0.4-1.4-0.5c-0.5-0.1-1-0.1-1.4-0.1h-0.7v-3.3h14.6v26
			c0,0.9,0.1,1.6,0.4,2.1c0.3,0.5,0.7,0.9,1.1,1.2c0.4,0.3,0.9,0.5,1.4,0.6c0.5,0.1,1,0.1,1.5,0.1h0.7v3.3h-19.8v-3.3H180.9z
			 M185.3,12.7c0.4-0.6,0.9-1.3,1.5-2c0.6-0.8,1.1-1.6,1.7-2.4c0.6-0.8,1.1-1.6,1.6-2.5c0.5-0.8,0.9-1.6,1.2-2.3h9.8v0.6
			c-0.4,0.5-1,1.2-1.9,2c-0.9,0.8-1.9,1.7-3,2.6c-1.1,0.9-2.2,1.8-3.4,2.6c-1.2,0.8-2.3,1.5-3.2,2.1h-4.2V12.7z"/>
		<path class="st0" d="M219,20.8c-0.8,0-1.5,0.2-2,0.5c-0.5,0.3-1,0.8-1.3,1.4c-0.3,0.6-0.6,1.3-0.7,2.1c-0.1,0.8-0.2,1.7-0.2,2.7
			c-2.8,0-4.9-0.3-6.3-0.9c-1.4-0.6-2.1-1.7-2.1-3.2c0-1.1,0.3-2.1,1-2.9c0.7-0.8,1.6-1.5,2.8-2c1.2-0.5,2.5-0.9,4.1-1.1
			c1.5-0.2,3.2-0.3,5-0.3c2.2,0,4.1,0.2,5.7,0.6c1.6,0.4,3,1,4.1,1.8c1.1,0.8,1.9,1.9,2.4,3.3c0.5,1.3,0.8,3,0.8,4.9v15.8
			c0,0.8,0.1,1.6,0.2,2.1c0.1,0.6,0.3,1,0.6,1.4c0.3,0.3,0.7,0.6,1.2,0.7c0.5,0.1,1.1,0.2,1.8,0.2h0.2v3.3h-11.6l-1.3-4.3h-0.5
			c-0.7,0.8-1.3,1.6-1.9,2.2c-0.6,0.6-1.3,1.1-1.9,1.5c-0.7,0.4-1.5,0.7-2.3,0.9c-0.9,0.2-1.9,0.3-3,0.3c-1.4,0-2.7-0.2-3.8-0.6
			s-2.2-1-3.1-1.9c-0.9-0.8-1.6-1.9-2.1-3.2c-0.5-1.3-0.8-2.8-0.8-4.5c0-3.4,1.2-5.9,3.5-7.5c2.3-1.6,5.8-2.5,10.5-2.6l5.1-0.2v-3.4
			c0-1,0-2-0.1-2.9c-0.1-0.9-0.3-1.6-0.5-2.2c-0.3-0.6-0.7-1.1-1.2-1.5C220.5,21,219.8,20.8,219,20.8z M213.5,41.9
			c0,1.8,0.3,3.1,0.8,4c0.6,0.9,1.5,1.3,2.7,1.3c0.9,0,1.7-0.2,2.4-0.6c0.7-0.4,1.3-0.9,1.9-1.6c0.5-0.7,0.9-1.5,1.2-2.5
			c0.3-1,0.4-2.1,0.4-3.3v-4.7l-2.8,0.2c-1.2,0.1-2.3,0.3-3.1,0.6c-0.8,0.3-1.5,0.8-2,1.4c-0.5,0.6-0.9,1.3-1.1,2.2
			C213.6,39.8,213.5,40.7,213.5,41.9z"/>
	</g>
	<g>
		<path d="M3.8,69.7v-8.2c0.8-0.3,1.4-0.4,2.3-0.4c1.1,0,2.2,0.6,2.2,1.9v2.6c0,1.3-1.1,1.9-2.3,1.9c-0.6,0-1.2-0.1-1.8-0.4v2.5H3.8
			z M4.2,66.7c0.6,0.2,1.2,0.4,1.9,0.4c0.9,0,1.8-0.5,1.8-1.5v-2.6c0-1-0.9-1.5-1.8-1.5c-0.6,0-1.2,0-1.9,0.3V66.7z"/>
		<path d="M17,61.2v5.9c-0.7,0.3-1.5,0.5-2.3,0.5c-1.1,0-2.2-0.7-2.2-1.9v-4.5h0.4v4.5c0,1,0.9,1.5,1.8,1.5c0.7,0,1.4-0.2,1.9-0.4
			v-5.5H17z"/>
		<path d="M21.2,59h0.4v2.6c0.6-0.3,1.3-0.4,1.8-0.4c1.1,0,2.3,0.7,2.3,1.9v2.6c0,1.3-1.1,2-2.2,2c-0.8,0-1.6-0.1-2.3-0.4V59z
			 M21.6,62.1v4.8c0.6,0.2,1.3,0.3,1.9,0.3c0.9,0,1.8-0.6,1.8-1.5v-2.6c0-1-0.9-1.5-1.8-1.5C22.9,61.6,22.2,61.8,21.6,62.1
			L21.6,62.1z"/>
		<path d="M31.5,67.5c-1.1,0-1.7-0.7-1.7-1.9V59h0.4v6.7c0,0.9,0.4,1.4,1.2,1.4V67.5z"/>
		<path d="M35.4,59c0.2,0,0.4,0.2,0.4,0.4s-0.2,0.4-0.4,0.4c-0.2,0-0.4-0.2-0.4-0.4S35.2,59,35.4,59z M35.2,61.2h0.4v6.3h-0.4V61.2z
			"/>
		<path d="M43.8,62.3c-0.3-0.5-1-0.7-1.6-0.7c-0.9,0-1.8,0.5-1.8,1.4v2.6c0,1,0.9,1.5,1.8,1.5c0.7,0,1.5-0.3,1.7-0.9l0.4,0.2
			c-0.4,0.7-1.2,1.2-2.1,1.2c-1.1,0-2.3-0.6-2.3-1.9v-2.6c0-1.3,1.1-1.9,2.3-1.9c0.8,0,1.6,0.3,2,0.9L43.8,62.3z"/>
		<path d="M48.3,59c0.2,0,0.4,0.2,0.4,0.4s-0.2,0.4-0.4,0.4c-0.2,0-0.4-0.2-0.4-0.4S48.1,59,48.3,59z M48.1,61.2h0.4v6.3h-0.4V61.2z
			"/>
		<path d="M57.5,59v8.3c-0.7,0.2-1.5,0.4-2.3,0.4c-1.1,0-2.2-0.6-2.2-1.9v-2.6c0-1.2,1.1-1.9,2.3-1.9c0.6,0,1.2,0.1,1.8,0.4V59H57.5
			z M57.1,62c-0.6-0.3-1.3-0.4-1.9-0.4c-0.9,0-1.8,0.5-1.8,1.5v2.6c0,1,0.9,1.5,1.8,1.5c0.6,0,1.2-0.1,1.9-0.3V62z"/>
		<path d="M65.6,63c0-1-0.9-1.4-1.9-1.4c-0.6,0-1.1,0.2-1.6,0.6c-0.1-0.1-0.2-0.2-0.3-0.3c0.5-0.5,1.2-0.7,1.9-0.7
			c1.1,0,2.2,0.6,2.2,1.8v4.3c-0.8,0.3-1.6,0.4-2.5,0.4c-1.2,0-2.1-0.8-2.1-2c0-1.4,1.1-2,2.3-2c0.5,0,1.2,0.1,1.8,0.3V63z M65.6,67
			v-2.6c-0.5-0.2-1.2-0.4-1.8-0.4c-1,0-1.9,0.4-1.9,1.6c0,1.1,0.7,1.6,1.7,1.7C64.2,67.2,64.9,67.2,65.6,67L65.6,67z"/>
		<path d="M74.6,59v8.3c-0.7,0.2-1.5,0.4-2.3,0.4c-1.1,0-2.2-0.6-2.2-1.9v-2.6c0-1.2,1.1-1.9,2.3-1.9c0.6,0,1.2,0.1,1.8,0.4V59H74.6
			z M74.2,62c-0.6-0.3-1.3-0.4-1.9-0.4c-0.9,0-1.8,0.5-1.8,1.5v2.6c0,1,0.9,1.5,1.8,1.5c0.6,0,1.2-0.1,1.9-0.3V62z"/>
		<path class="st1" d="M89.5,64.7c0.2-0.3,0.5-0.7,0.6-1l0.9,0.4l-0.8,1.3l1.4,1.6h-1.3l-0.7-0.8c-0.7,0.8-1.4,1.3-2.5,1.3
			c-1.5,0-2.6-0.9-2.6-2.4c0-1.2,0.8-1.8,1.7-2.4c-0.5-0.5-0.9-1.1-0.9-1.8c0-1.2,1.1-1.9,2.2-1.9c1,0,2,0.7,2,1.8
			c0,1.1-0.8,1.7-1.7,2.1L89.5,64.7z M86.9,63.4c-0.6,0.4-1.4,0.9-1.4,1.7c0,0.9,0.8,1.5,1.7,1.5c0.8,0,1.3-0.5,1.7-1.1L86.9,63.4z
			 M86.4,60.9c0,0.5,0.4,1,0.8,1.4c0.6-0.3,1.4-0.7,1.4-1.5c0-0.6-0.4-1-1-1C86.9,59.9,86.4,60.3,86.4,60.9z"/>
		<path class="st2" d="M100.7,67.5v-5.9c0.7-0.3,1.5-0.5,2.3-0.5c1.1,0,2.2,0.7,2.2,1.9v4.5h-0.4V63c0-1-0.9-1.5-1.8-1.5
			c-0.7,0-1.4,0.2-1.9,0.4v5.6H100.7z"/>
		<path class="st2" d="M114.1,61.2v5.9c-0.7,0.3-1.5,0.5-2.3,0.5c-1.1,0-2.2-0.7-2.2-1.9v-4.5h0.4v4.5c0,1,0.9,1.5,1.8,1.5
			c0.7,0,1.4-0.2,1.9-0.4v-5.5H114.1z"/>
		<path class="st2" d="M118.6,64.7v1c0,1,0.9,1.5,1.8,1.5c0.7,0,1.3-0.2,1.7-0.8l0.4,0.2c-0.4,0.7-1.2,1-2.1,1
			c-1.1,0-2.3-0.6-2.3-1.9v-2.6c0-1.3,1.1-1.9,2.3-1.9c1.1,0,2.3,0.6,2.3,1.9v1.6H118.6z M122.3,63.1c0-1-0.9-1.5-1.8-1.5
			c-0.9,0-1.8,0.5-1.8,1.5v1.2h3.7V63.1L122.3,63.1z"/>
		<path class="st2" d="M128.6,67.2l2.1-6h0.5l-2.3,6.3h-0.6c-0.7-2.1-1.5-4.3-2.3-6.3h0.5L128.6,67.2z"/>
		<path class="st2" d="M138.4,63c0-1-0.9-1.4-1.9-1.4c-0.6,0-1.1,0.2-1.6,0.6c-0.1-0.1-0.2-0.2-0.3-0.3c0.5-0.5,1.2-0.7,1.9-0.7
			c1.1,0,2.2,0.6,2.2,1.8v4.3c-0.8,0.3-1.6,0.4-2.5,0.4c-1.2,0-2.1-0.8-2.1-2c0-1.4,1.1-2,2.3-2c0.5,0,1.2,0.1,1.8,0.3V63z
			 M138.4,67v-2.6c-0.5-0.2-1.2-0.4-1.8-0.4c-1,0-1.9,0.4-1.9,1.6c0,1.1,0.7,1.6,1.7,1.7C137,67.2,137.7,67.2,138.4,67L138.4,67z"/>
		<path class="st2" d="M143,66.2c0.5,0.7,1.2,1,1.9,1c0.7,0,1.6-0.4,1.6-1.3c0-0.9-0.9-1.2-1.6-1.3c-1-0.2-2.1-0.5-2.1-1.7
			c0-1.9,2.8-2.1,3.8-1l-0.3,0.3c-0.8-0.9-3-0.8-3.1,0.7c0,1,1.1,1.1,1.7,1.3c0.9,0.2,1.9,0.6,1.9,1.7c0,1.1-1,1.7-2,1.7
			c-0.9,0-1.8-0.4-2.3-1.1L143,66.2z"/>
		<path class="st2" d="M158.9,67.5c-1.1,0-2.1-0.5-2.1-1.9V59h0.4v2.3h1.4v0.4h-1.4v3.9c0,1.1,0.9,1.5,1.7,1.5V67.5z"/>
		<path class="st2" d="M162.9,64.7v1c0,1,0.9,1.5,1.8,1.5c0.7,0,1.3-0.2,1.7-0.8l0.4,0.2c-0.4,0.7-1.2,1-2.1,1
			c-1.1,0-2.3-0.6-2.3-1.9v-2.6c0-1.3,1.1-1.9,2.3-1.9c1.1,0,2.3,0.6,2.3,1.9v1.6H162.9z M166.5,63.1c0-1-0.9-1.5-1.8-1.5
			c-0.9,0-1.8,0.5-1.8,1.5v1.2h3.7V63.1L166.5,63.1z"/>
		<path class="st2" d="M174.6,62.3c-0.3-0.5-1-0.7-1.6-0.7c-0.9,0-1.8,0.5-1.8,1.4v2.6c0,1,0.9,1.5,1.8,1.5c0.7,0,1.5-0.3,1.7-0.9
			l0.4,0.2c-0.4,0.7-1.2,1.2-2.1,1.2c-1.1,0-2.3-0.6-2.3-1.9v-2.6c0-1.3,1.1-1.9,2.3-1.9c0.8,0,1.6,0.3,2,0.9L174.6,62.3z"/>
		<path class="st2" d="M178.8,67.5v-5.9c0.7-0.3,1.5-0.5,2.3-0.5c1.1,0,2.2,0.7,2.2,1.9v4.5h-0.4V63c0-1-0.9-1.5-1.8-1.5
			c-0.7,0-1.4,0.2-1.9,0.4v5.6H178.8z"/>
		<path class="st2" d="M187.6,63.1c0-1.3,1.1-1.9,2.3-1.9c1.1,0,2.3,0.6,2.3,1.9v2.6c0,1.3-1.1,1.9-2.3,1.9c-1.1,0-2.3-0.6-2.3-1.9
			V63.1z M188,63.1v2.6c0,1,1,1.5,1.8,1.5c0.9,0,1.8-0.4,1.8-1.5v-2.6c0-1-1-1.5-1.8-1.5C189,61.6,188,62,188,63.1z"/>
		<path class="st2" d="M198,67.5c-1.1,0-1.7-0.7-1.7-1.9V59h0.4v6.7c0,0.9,0.4,1.4,1.2,1.4V67.5z"/>
		<path class="st2" d="M201.5,63.1c0-1.3,1.1-1.9,2.3-1.9c1.1,0,2.3,0.6,2.3,1.9v2.6c0,1.3-1.1,1.9-2.3,1.9c-1.1,0-2.3-0.6-2.3-1.9
			V63.1z M201.9,63.1v2.6c0,1,1,1.5,1.8,1.5c0.9,0,1.8-0.4,1.8-1.5v-2.6c0-1-1-1.5-1.8-1.5C202.8,61.6,201.9,62,201.9,63.1z"/>
		<path class="st2" d="M210.6,68.7c1.1,0.9,3.5,0.7,3.5-0.9v-0.7c-0.6,0.3-1.2,0.4-1.8,0.4c-1.1,0-2.3-0.7-2.3-1.9V63
			c0-1.2,1.1-1.9,2.2-1.9c0.8,0,1.5,0.2,2.3,0.5v6.2c0,1.3-1.1,1.8-2.2,1.8c-0.7,0-1.5-0.2-1.9-0.7L210.6,68.7z M214.1,66.7v-4.8
			c-0.4-0.2-1.2-0.4-1.9-0.4c-0.9,0-1.8,0.5-1.8,1.4v2.7c0,1,0.9,1.4,1.8,1.5C212.9,67.1,213.4,67,214.1,66.7L214.1,66.7z"/>
		<path class="st2" d="M219.5,59.4h0.7l-1,1.4h-0.4L219.5,59.4z M218.9,61.2h0.5v6.2h-0.5V61.2z"/>
		<path class="st2" d="M227.7,63c0-1-0.9-1.4-1.9-1.4c-0.6,0-1.1,0.2-1.6,0.6c-0.1-0.1-0.2-0.2-0.3-0.3c0.5-0.5,1.2-0.7,1.9-0.7
			c1.1,0,2.2,0.6,2.2,1.8v4.3c-0.8,0.3-1.6,0.4-2.5,0.4c-1.2,0-2.1-0.8-2.1-2c0-1.4,1.1-2,2.3-2c0.5,0,1.2,0.1,1.8,0.3V63z
			 M227.7,67v-2.6c-0.5-0.2-1.2-0.4-1.8-0.4c-1,0-1.9,0.4-1.9,1.6c0,1.1,0.7,1.6,1.7,1.7C226.4,67.2,227,67.2,227.7,67L227.7,67z"/>
		<path class="st2" d="M232.3,66.2c0.5,0.7,1.2,1,1.9,1c0.7,0,1.6-0.4,1.6-1.3c0-0.9-0.9-1.2-1.6-1.3c-1-0.2-2.1-0.5-2.1-1.7
			c0-1.9,2.8-2.1,3.8-1l-0.3,0.3c-0.8-0.9-3-0.8-3.1,0.7c0,1,1.1,1.1,1.7,1.3c0.9,0.2,1.9,0.6,1.9,1.7c0,1.1-1,1.7-2,1.7
			c-0.9,0-1.8-0.4-2.3-1.1L232.3,66.2z"/>
	</g>
</g>
</svg>
